<svg xmlns="http://www.w3.org/2000/svg" width="187.3" height="12" viewBox="-477.8 -135.3 187.3 12" enable-background="new -477.8 -135.3 187.3 12"><path fill="#fff" d="M-25 1.4h2.2v13.6h5.9v1.8h-8.1v-15.4zm9.7 9.4c0-3.6 2-6.3 5.4-6.3 3.5 0 4.6 2.7 4.6 5.3v.9h-7.9c0 2.7 1.1 4.5 3.8 4.5 1.4 0 2.6-.3 3.4-.7v1.8c-.7.4-2 .7-3.4.7-4 0-5.9-2.5-5.9-6.2zm7.9-1.5v-.1c0-1.5-.8-3-2.5-3-1.5 0-2.8.8-3.1 3.1h5.6zm11 6.4c-.6.7-1.8 1.3-3.2 1.3-2.3 0-3.8-1.3-3.8-3.4 0-2.4 2.1-3.7 5.4-3.7h1.3v-1c0-1.9-.7-2.6-2.6-2.6-1.3 0-2.3.4-3 .7v-1.8c.8-.3 2-.7 3.3-.7 2.6 0 4.3 1.1 4.3 3.9v5.9c0 .8.4 1 .9 1h.4v1.5c-.3.1-.6.2-1.3.2-.7 0-1.4-.5-1.7-1.3zm-.3-1.2v-3h-1c-2.2 0-3.4.6-3.4 2.1 0 1.2.8 1.9 2.1 1.9 1-.2 1.8-.6 2.3-1zm5-3.7c0-3.5 2.1-6.3 5.6-6.3 1.1 0 2 .3 2.3.5v-5h2.1v16.8h-2.1v-1c-.5.5-1.5 1.2-2.9 1.2-3.3 0-5-2.4-5-6.2zm7.9 3.6v-7.7c-.4-.2-1.2-.4-2.1-.4-2.4 0-3.6 1.8-3.6 4.5 0 2.4.8 4.4 3.3 4.4 1 0 1.9-.3 2.4-.8zm4.9-3.6c0-3.6 2-6.3 5.4-6.3 3.5 0 4.6 2.7 4.6 5.3v.9h-7.9c0 2.7 1.1 4.5 3.8 4.5 1.4 0 2.6-.3 3.4-.7v1.8c-.7.4-2 .7-3.4.7-4 0-5.9-2.5-5.9-6.2zm7.9-1.5v-.1c0-1.5-.8-3-2.5-3-1.5 0-2.8.8-3.1 3.1h5.6zm4.9-4.6h2.1v1.3c.7-.8 1.7-1.5 3-1.5l1 .1v2c-.3-.1-.7-.2-1.3-.2-1.4 0-2.1.5-2.8 1.1v9.2h-2.1l.1-12zm8 4.6c0-4.5 2.3-8.1 7.1-8.1 1.7 0 2.9.3 3.5.6v2c-.7-.4-1.8-.8-3.4-.8-3.3 0-4.9 2.4-4.9 6.2 0 3.6 1.9 5.8 5.1 5.8 1.4 0 2.5-.3 3.4-.8v2c-1.1.5-2.3.7-3.8.7-4.4.1-7-3.1-7-7.6zm13.1 1.5c0-3.3 1.7-6.3 5.4-6.3s5.4 2.7 5.4 6.3c0 3.2-1.7 6.2-5.4 6.2s-5.4-2.7-5.4-6.2zm8.6 0c0-2.2-.6-4.6-3.2-4.6s-3.1 2.3-3.1 4.6c0 2.2.6 4.5 3.2 4.5s3.1-2.3 3.1-4.5zm5-6.1h2.1v1c.6-.4 1.8-1.2 3.3-1.2 2.9 0 3.9 1.8 3.9 4.3v8h-2.1v-7.6c0-1.8-.5-2.9-2.5-2.9-1.1 0-2 .4-2.6.9v9.6h-2.1v-12.1zm12.9 0h2.1v1c.6-.4 1.8-1.2 3.3-1.2 2.9 0 3.9 1.8 3.9 4.3v8h-2.1v-7.6c0-1.8-.5-2.9-2.5-2.9-1.1 0-2 .4-2.6.9v9.6h-2.1v-12.1zm12.1 6.1c0-3.6 2-6.3 5.4-6.3 3.5 0 4.6 2.7 4.6 5.3v.9h-7.9c0 2.7 1.1 4.5 3.8 4.5 1.4 0 2.6-.3 3.4-.7v1.8c-.7.3-2.1.7-3.5.7-3.9 0-5.8-2.5-5.8-6.2zm7.9-1.5v-.1c0-1.5-.8-3-2.5-3-1.5 0-2.8.8-3.1 3.1h5.6zm4 1.7c0-3.6 1.8-6.4 5.5-6.4 1.5 0 2.3.3 3 .6v1.7c-.7-.3-1.6-.6-2.7-.6-2.5 0-3.5 1.8-3.5 4.7s1.4 4.3 3.7 4.3c1.3 0 2.1-.3 2.8-.6v1.7c-.7.4-1.7.6-3.1.6-3.6 0-5.7-2.3-5.7-6zm11.7 2.6v-7.2h-1.7v-1.7h1.7l.4-3.2h1.7v3.2h2.8v1.6h-2.8v7c0 1.4.5 1.9 1.7 1.9.6 0 1.2-.1 1.5-.3v1.7c-.4.1-1.1.3-2 .3-2.2.1-3.3-.8-3.3-3.3z"/><g fill="#fff"><path d="M-477.8-135.1h2.6v9.3h5.8v2.3h-8.3v-11.6zM-465-135.1h8.8v2.3h-6.2v2.4h5.5v2.3h-5.5v2.4h6.3v2.3h-8.8v-11.7zM-447-135.2h2.4l5 11.7h-2.7l-1.1-2.6h-4.9l-1.1 2.6h-2.6l5-11.7zm2.7 6.9l-1.5-3.8-1.5 3.8h3zM-435.3-135.1h4.5c3.6 0 6.2 2.5 6.2 5.8s-2.5 5.8-6.2 5.8h-4.5v-11.6zm4.5 9.3c2.1 0 3.5-1.4 3.5-3.5s-1.4-3.5-3.5-3.5h-2v7h2zM-419.6-135.1h8.8v2.3h-6.2v2.4h5.5v2.3h-5.5v2.4h6.3v2.3h-8.8v-11.7zM-405.7-135.1h5.3c1.5 0 2.6.4 3.4 1.2.6.6 1 1.6 1 2.7 0 1.9-1 3-2.5 3.6l2.8 4.1h-3l-2.5-3.7h-2v3.7h-2.6v-11.6zm5.2 5.7c1.2 0 2-.7 2-1.6 0-1.1-.8-1.7-2-1.7h-2.5v3.3h2.5zM-391.6-129.2c0-3.3 2.5-6 6-6 2.2 0 3.5.7 4.6 1.8l-1.6 1.9c-.9-.8-1.8-1.3-3-1.3-2 0-3.4 1.6-3.4 3.6s1.4 3.6 3.4 3.6c1.3 0 2.1-.5 3-1.4l1.6 1.6c-1.2 1.3-2.5 2.1-4.8 2.1-3.3 0-5.8-2.6-5.8-5.9zM-377.2-129.2c0-3.3 2.6-6 6.2-6s6.1 2.7 6.1 6-2.6 6-6.2 6c-3.5-.1-6.1-2.7-6.1-6zm9.7 0c0-2-1.5-3.7-3.5-3.7-2.1 0-3.5 1.6-3.5 3.6s1.5 3.6 3.5 3.6 3.5-1.5 3.5-3.5zM-359.9-135.1h2.4l5.4 7.1v-7.1h2.5v11.6h-2.2l-5.6-7.4v7.4h-2.5v-11.6zM-344-135.1h2.4l5.4 7.1v-7.1h2.5v11.6h-2.2l-5.6-7.4v7.4h-2.5v-11.6zM-328.1-135.1h8.8v2.3h-6.2v2.4h5.5v2.3h-5.5v2.4h6.3v2.3h-8.8v-11.7zM-314.9-129.2c0-3.3 2.5-6 6-6 2.2 0 3.5.7 4.6 1.8l-1.6 1.9c-.9-.8-1.8-1.3-3-1.3-2 0-3.4 1.6-3.4 3.6s1.4 3.6 3.4 3.6c1.3 0 2.1-.5 3-1.4l1.6 1.6c-1.2 1.3-2.5 2.1-4.8 2.1-3.3 0-5.8-2.6-5.8-5.9zM-296.6-132.7h-3.5v-2.4h9.6v2.4h-3.5v9.2h-2.6v-9.2z"/></g></svg>